# xmcd
#
# Track frame offsets:
#	150
#	12673
#	27915
#	45315
#	61665
#	79800
#	101740
#	116700
#	136115
#	154708
#
# Disc length: 2213 seconds
#
# Revision: 3
# Processed by: cddbd v1.5.2PL0 Copyright (c) Steve Scherf et al.
# Submitted via: audiograbber 1.83.01
#
DISCID=7608a30a
DTITLE=Judy Rodman - A Place Called Love
DYEAR=1987
DGENRE=Country
TTITLE0=A Place Called Love
TTITLE1=I'll Be Your Baby Tonight
TTITLE2=I Want A Love Like That
TTITLE3=Girls Ride Horses Too
TTITLE4=That Was Then, This Is Now
TTITLE5=Early Fall
TTITLE6=What's A Broken Heart
TTITLE7=Please Don't Take My Heart
TTITLE8=Love Is  Winding Road
TTITLE9=Love Comes From Inside Of You
EXTD=
EXTT0=
EXTT1=
EXTT2=
EXTT3=
EXTT4=
EXTT5=
EXTT6=
EXTT7=
EXTT8=
EXTT9=
PLAYORDER=
